<svg xmlns="http://www.w3.org/2000/svg" width="182" height="146" viewBox="0 0 182 146">
  <g id="Group_15896" data-name="Group 15896" transform="translate(-750 -1905)" opacity="0.1">
    <circle id="Ellipse_102" data-name="Ellipse 102" cx="3" cy="3" r="3" transform="translate(926 2045)" fill="#276dff"/>
    <circle id="Ellipse_102-2" data-name="Ellipse 102" cx="3" cy="3" r="3" transform="translate(761 1905)" fill="#276dff"/>
    <circle id="Ellipse_102-3" data-name="Ellipse 102" cx="3" cy="3" r="3" transform="translate(772 1905)" fill="#276dff"/>
    <circle id="Ellipse_102-4" data-name="Ellipse 102" cx="3" cy="3" r="3" transform="translate(783 1905)" fill="#276dff"/>
    <circle id="Ellipse_102-5" data-name="Ellipse 102" cx="3" cy="3" r="3" transform="translate(794 1905)" fill="#276dff"/>
    <circle id="Ellipse_102-6" data-name="Ellipse 102" cx="3" cy="3" r="3" transform="translate(805 1905)" fill="#276dff"/>
    <circle id="Ellipse_102-7" data-name="Ellipse 102" cx="3" cy="3" r="3" transform="translate(816 1905)" fill="#276dff"/>
    <circle id="Ellipse_102-8" data-name="Ellipse 102" cx="3" cy="3" r="3" transform="translate(827 1905)" fill="#276dff"/>
    <circle id="Ellipse_102-9" data-name="Ellipse 102" cx="3" cy="3" r="3" transform="translate(838 1905)" fill="#276dff"/>
    <circle id="Ellipse_102-10" data-name="Ellipse 102" cx="3" cy="3" r="3" transform="translate(849 1905)" fill="#276dff"/>
    <circle id="Ellipse_102-11" data-name="Ellipse 102" cx="3" cy="3" r="3" transform="translate(860 1905)" fill="#276dff"/>
    <circle id="Ellipse_102-12" data-name="Ellipse 102" cx="3" cy="3" r="3" transform="translate(871 1905)" fill="#276dff"/>
    <circle id="Ellipse_102-13" data-name="Ellipse 102" cx="3" cy="3" r="3" transform="translate(882 1905)" fill="#276dff"/>
    <circle id="Ellipse_102-14" data-name="Ellipse 102" cx="3" cy="3" r="3" transform="translate(893 1905)" fill="#276dff"/>
    <circle id="Ellipse_102-15" data-name="Ellipse 102" cx="3" cy="3" r="3" transform="translate(904 1905)" fill="#276dff"/>
    <circle id="Ellipse_102-16" data-name="Ellipse 102" cx="3" cy="3" r="3" transform="translate(915 1905)" fill="#276dff"/>
    <circle id="Ellipse_102-17" data-name="Ellipse 102" cx="3" cy="3" r="3" transform="translate(750 1915)" fill="#276dff"/>
    <circle id="Ellipse_102-18" data-name="Ellipse 102" cx="3" cy="3" r="3" transform="translate(761 1915)" fill="#276dff"/>
    <circle id="Ellipse_102-19" data-name="Ellipse 102" cx="3" cy="3" r="3" transform="translate(772 1915)" fill="#276dff"/>
    <circle id="Ellipse_102-20" data-name="Ellipse 102" cx="3" cy="3" r="3" transform="translate(783 1915)" fill="#276dff"/>
    <circle id="Ellipse_102-21" data-name="Ellipse 102" cx="3" cy="3" r="3" transform="translate(794 1915)" fill="#276dff"/>
    <circle id="Ellipse_102-22" data-name="Ellipse 102" cx="3" cy="3" r="3" transform="translate(805 1915)" fill="#276dff"/>
    <circle id="Ellipse_102-23" data-name="Ellipse 102" cx="3" cy="3" r="3" transform="translate(816 1915)" fill="#276dff"/>
    <circle id="Ellipse_102-24" data-name="Ellipse 102" cx="3" cy="3" r="3" transform="translate(827 1915)" fill="#276dff"/>
    <circle id="Ellipse_102-25" data-name="Ellipse 102" cx="3" cy="3" r="3" transform="translate(838 1915)" fill="#276dff"/>
    <circle id="Ellipse_102-26" data-name="Ellipse 102" cx="3" cy="3" r="3" transform="translate(849 1915)" fill="#276dff"/>
    <circle id="Ellipse_102-27" data-name="Ellipse 102" cx="3" cy="3" r="3" transform="translate(860 1915)" fill="#276dff"/>
    <circle id="Ellipse_102-28" data-name="Ellipse 102" cx="3" cy="3" r="3" transform="translate(871 1915)" fill="#276dff"/>
    <circle id="Ellipse_102-29" data-name="Ellipse 102" cx="3" cy="3" r="3" transform="translate(882 1915)" fill="#276dff"/>
    <circle id="Ellipse_102-30" data-name="Ellipse 102" cx="3" cy="3" r="3" transform="translate(893 1915)" fill="#276dff"/>
    <circle id="Ellipse_102-31" data-name="Ellipse 102" cx="3" cy="3" r="3" transform="translate(904 1915)" fill="#276dff"/>
    <circle id="Ellipse_102-32" data-name="Ellipse 102" cx="3" cy="3" r="3" transform="translate(915 1915)" fill="#276dff"/>
    <circle id="Ellipse_102-33" data-name="Ellipse 102" cx="3" cy="3" r="3" transform="translate(750 1925)" fill="#276dff"/>
    <circle id="Ellipse_102-34" data-name="Ellipse 102" cx="3" cy="3" r="3" transform="translate(761 1925)" fill="#276dff"/>
    <circle id="Ellipse_102-35" data-name="Ellipse 102" cx="3" cy="3" r="3" transform="translate(772 1925)" fill="#276dff"/>
    <circle id="Ellipse_102-36" data-name="Ellipse 102" cx="3" cy="3" r="3" transform="translate(783 1925)" fill="#276dff"/>
    <circle id="Ellipse_102-37" data-name="Ellipse 102" cx="3" cy="3" r="3" transform="translate(794 1925)" fill="#276dff"/>
    <circle id="Ellipse_102-38" data-name="Ellipse 102" cx="3" cy="3" r="3" transform="translate(805 1925)" fill="#276dff"/>
    <circle id="Ellipse_102-39" data-name="Ellipse 102" cx="3" cy="3" r="3" transform="translate(816 1925)" fill="#276dff"/>
    <circle id="Ellipse_102-40" data-name="Ellipse 102" cx="3" cy="3" r="3" transform="translate(827 1925)" fill="#276dff"/>
    <circle id="Ellipse_102-41" data-name="Ellipse 102" cx="3" cy="3" r="3" transform="translate(838 1925)" fill="#276dff"/>
    <circle id="Ellipse_102-42" data-name="Ellipse 102" cx="3" cy="3" r="3" transform="translate(849 1925)" fill="#276dff"/>
    <circle id="Ellipse_102-43" data-name="Ellipse 102" cx="3" cy="3" r="3" transform="translate(860 1925)" fill="#276dff"/>
    <circle id="Ellipse_102-44" data-name="Ellipse 102" cx="3" cy="3" r="3" transform="translate(871 1925)" fill="#276dff"/>
    <circle id="Ellipse_102-45" data-name="Ellipse 102" cx="3" cy="3" r="3" transform="translate(882 1925)" fill="#276dff"/>
    <circle id="Ellipse_102-46" data-name="Ellipse 102" cx="3" cy="3" r="3" transform="translate(893 1925)" fill="#276dff"/>
    <circle id="Ellipse_102-47" data-name="Ellipse 102" cx="3" cy="3" r="3" transform="translate(904 1925)" fill="#276dff"/>
    <circle id="Ellipse_102-48" data-name="Ellipse 102" cx="3" cy="3" r="3" transform="translate(915 1925)" fill="#276dff"/>
    <circle id="Ellipse_102-49" data-name="Ellipse 102" cx="3" cy="3" r="3" transform="translate(750 1935)" fill="#276dff"/>
    <circle id="Ellipse_102-50" data-name="Ellipse 102" cx="3" cy="3" r="3" transform="translate(761 1935)" fill="#276dff"/>
    <circle id="Ellipse_102-51" data-name="Ellipse 102" cx="3" cy="3" r="3" transform="translate(772 1935)" fill="#276dff"/>
    <circle id="Ellipse_102-52" data-name="Ellipse 102" cx="3" cy="3" r="3" transform="translate(783 1935)" fill="#276dff"/>
    <circle id="Ellipse_102-53" data-name="Ellipse 102" cx="3" cy="3" r="3" transform="translate(794 1935)" fill="#276dff"/>
    <circle id="Ellipse_102-54" data-name="Ellipse 102" cx="3" cy="3" r="3" transform="translate(805 1935)" fill="#276dff"/>
    <circle id="Ellipse_102-55" data-name="Ellipse 102" cx="3" cy="3" r="3" transform="translate(816 1935)" fill="#276dff"/>
    <circle id="Ellipse_102-56" data-name="Ellipse 102" cx="3" cy="3" r="3" transform="translate(827 1935)" fill="#276dff"/>
    <circle id="Ellipse_102-57" data-name="Ellipse 102" cx="3" cy="3" r="3" transform="translate(838 1935)" fill="#276dff"/>
    <circle id="Ellipse_102-58" data-name="Ellipse 102" cx="3" cy="3" r="3" transform="translate(849 1935)" fill="#276dff"/>
    <circle id="Ellipse_102-59" data-name="Ellipse 102" cx="3" cy="3" r="3" transform="translate(860 1935)" fill="#276dff"/>
    <circle id="Ellipse_102-60" data-name="Ellipse 102" cx="3" cy="3" r="3" transform="translate(871 1935)" fill="#276dff"/>
    <circle id="Ellipse_102-61" data-name="Ellipse 102" cx="3" cy="3" r="3" transform="translate(882 1935)" fill="#276dff"/>
    <circle id="Ellipse_102-62" data-name="Ellipse 102" cx="3" cy="3" r="3" transform="translate(893 1935)" fill="#276dff"/>
    <circle id="Ellipse_102-63" data-name="Ellipse 102" cx="3" cy="3" r="3" transform="translate(904 1935)" fill="#276dff"/>
    <circle id="Ellipse_102-64" data-name="Ellipse 102" cx="3" cy="3" r="3" transform="translate(915 1935)" fill="#276dff"/>
    <circle id="Ellipse_102-65" data-name="Ellipse 102" cx="3" cy="3" r="3" transform="translate(750 1945)" fill="#276dff"/>
    <circle id="Ellipse_102-66" data-name="Ellipse 102" cx="3" cy="3" r="3" transform="translate(761 1945)" fill="#276dff"/>
    <circle id="Ellipse_102-67" data-name="Ellipse 102" cx="3" cy="3" r="3" transform="translate(772 1945)" fill="#276dff"/>
    <circle id="Ellipse_102-68" data-name="Ellipse 102" cx="3" cy="3" r="3" transform="translate(783 1945)" fill="#276dff"/>
    <circle id="Ellipse_102-69" data-name="Ellipse 102" cx="3" cy="3" r="3" transform="translate(794 1945)" fill="#276dff"/>
    <circle id="Ellipse_102-70" data-name="Ellipse 102" cx="3" cy="3" r="3" transform="translate(805 1945)" fill="#276dff"/>
    <circle id="Ellipse_102-71" data-name="Ellipse 102" cx="3" cy="3" r="3" transform="translate(816 1945)" fill="#276dff"/>
    <circle id="Ellipse_102-72" data-name="Ellipse 102" cx="3" cy="3" r="3" transform="translate(827 1945)" fill="#276dff"/>
    <circle id="Ellipse_102-73" data-name="Ellipse 102" cx="3" cy="3" r="3" transform="translate(838 1945)" fill="#276dff"/>
    <circle id="Ellipse_102-74" data-name="Ellipse 102" cx="3" cy="3" r="3" transform="translate(849 1945)" fill="#276dff"/>
    <circle id="Ellipse_102-75" data-name="Ellipse 102" cx="3" cy="3" r="3" transform="translate(860 1945)" fill="#276dff"/>
    <circle id="Ellipse_102-76" data-name="Ellipse 102" cx="3" cy="3" r="3" transform="translate(871 1945)" fill="#276dff"/>
    <circle id="Ellipse_102-77" data-name="Ellipse 102" cx="3" cy="3" r="3" transform="translate(882 1945)" fill="#276dff"/>
    <circle id="Ellipse_102-78" data-name="Ellipse 102" cx="3" cy="3" r="3" transform="translate(893 1945)" fill="#276dff"/>
    <circle id="Ellipse_102-79" data-name="Ellipse 102" cx="3" cy="3" r="3" transform="translate(904 1945)" fill="#276dff"/>
    <circle id="Ellipse_102-80" data-name="Ellipse 102" cx="3" cy="3" r="3" transform="translate(915 1945)" fill="#276dff"/>
    <circle id="Ellipse_102-81" data-name="Ellipse 102" cx="3" cy="3" r="3" transform="translate(750 1955)" fill="#276dff"/>
    <circle id="Ellipse_102-82" data-name="Ellipse 102" cx="3" cy="3" r="3" transform="translate(761 1955)" fill="#276dff"/>
    <circle id="Ellipse_102-83" data-name="Ellipse 102" cx="3" cy="3" r="3" transform="translate(772 1955)" fill="#276dff"/>
    <circle id="Ellipse_102-84" data-name="Ellipse 102" cx="3" cy="3" r="3" transform="translate(783 1955)" fill="#276dff"/>
    <circle id="Ellipse_102-85" data-name="Ellipse 102" cx="3" cy="3" r="3" transform="translate(794 1955)" fill="#276dff"/>
    <circle id="Ellipse_102-86" data-name="Ellipse 102" cx="3" cy="3" r="3" transform="translate(805 1955)" fill="#276dff"/>
    <circle id="Ellipse_102-87" data-name="Ellipse 102" cx="3" cy="3" r="3" transform="translate(816 1955)" fill="#276dff"/>
    <circle id="Ellipse_102-88" data-name="Ellipse 102" cx="3" cy="3" r="3" transform="translate(827 1955)" fill="#276dff"/>
    <circle id="Ellipse_102-89" data-name="Ellipse 102" cx="3" cy="3" r="3" transform="translate(838 1955)" fill="#276dff"/>
    <circle id="Ellipse_102-90" data-name="Ellipse 102" cx="3" cy="3" r="3" transform="translate(849 1955)" fill="#276dff"/>
    <circle id="Ellipse_102-91" data-name="Ellipse 102" cx="3" cy="3" r="3" transform="translate(860 1955)" fill="#276dff"/>
    <circle id="Ellipse_102-92" data-name="Ellipse 102" cx="3" cy="3" r="3" transform="translate(871 1955)" fill="#276dff"/>
    <circle id="Ellipse_102-93" data-name="Ellipse 102" cx="3" cy="3" r="3" transform="translate(882 1955)" fill="#276dff"/>
    <circle id="Ellipse_102-94" data-name="Ellipse 102" cx="3" cy="3" r="3" transform="translate(893 1955)" fill="#276dff"/>
    <circle id="Ellipse_102-95" data-name="Ellipse 102" cx="3" cy="3" r="3" transform="translate(904 1955)" fill="#276dff"/>
    <circle id="Ellipse_102-96" data-name="Ellipse 102" cx="3" cy="3" r="3" transform="translate(915 1955)" fill="#276dff"/>
    <circle id="Ellipse_102-97" data-name="Ellipse 102" cx="3" cy="3" r="3" transform="translate(750 1965)" fill="#276dff"/>
    <circle id="Ellipse_102-98" data-name="Ellipse 102" cx="3" cy="3" r="3" transform="translate(761 1965)" fill="#276dff"/>
    <circle id="Ellipse_102-99" data-name="Ellipse 102" cx="3" cy="3" r="3" transform="translate(772 1965)" fill="#276dff"/>
    <circle id="Ellipse_102-100" data-name="Ellipse 102" cx="3" cy="3" r="3" transform="translate(783 1965)" fill="#276dff"/>
    <circle id="Ellipse_102-101" data-name="Ellipse 102" cx="3" cy="3" r="3" transform="translate(794 1965)" fill="#276dff"/>
    <circle id="Ellipse_102-102" data-name="Ellipse 102" cx="3" cy="3" r="3" transform="translate(805 1965)" fill="#276dff"/>
    <circle id="Ellipse_102-103" data-name="Ellipse 102" cx="3" cy="3" r="3" transform="translate(816 1965)" fill="#276dff"/>
    <circle id="Ellipse_102-104" data-name="Ellipse 102" cx="3" cy="3" r="3" transform="translate(827 1965)" fill="#276dff"/>
    <circle id="Ellipse_102-105" data-name="Ellipse 102" cx="3" cy="3" r="3" transform="translate(838 1965)" fill="#276dff"/>
    <circle id="Ellipse_102-106" data-name="Ellipse 102" cx="3" cy="3" r="3" transform="translate(849 1965)" fill="#276dff"/>
    <circle id="Ellipse_102-107" data-name="Ellipse 102" cx="3" cy="3" r="3" transform="translate(860 1965)" fill="#276dff"/>
    <circle id="Ellipse_102-108" data-name="Ellipse 102" cx="3" cy="3" r="3" transform="translate(871 1965)" fill="#276dff"/>
    <circle id="Ellipse_102-109" data-name="Ellipse 102" cx="3" cy="3" r="3" transform="translate(882 1965)" fill="#276dff"/>
    <circle id="Ellipse_102-110" data-name="Ellipse 102" cx="3" cy="3" r="3" transform="translate(893 1965)" fill="#276dff"/>
    <circle id="Ellipse_102-111" data-name="Ellipse 102" cx="3" cy="3" r="3" transform="translate(904 1965)" fill="#276dff"/>
    <circle id="Ellipse_102-112" data-name="Ellipse 102" cx="3" cy="3" r="3" transform="translate(915 1965)" fill="#276dff"/>
    <circle id="Ellipse_102-113" data-name="Ellipse 102" cx="3" cy="3" r="3" transform="translate(750 1975)" fill="#276dff"/>
    <circle id="Ellipse_102-114" data-name="Ellipse 102" cx="3" cy="3" r="3" transform="translate(761 1975)" fill="#276dff"/>
    <circle id="Ellipse_102-115" data-name="Ellipse 102" cx="3" cy="3" r="3" transform="translate(772 1975)" fill="#276dff"/>
    <circle id="Ellipse_102-116" data-name="Ellipse 102" cx="3" cy="3" r="3" transform="translate(783 1975)" fill="#276dff"/>
    <circle id="Ellipse_102-117" data-name="Ellipse 102" cx="3" cy="3" r="3" transform="translate(794 1975)" fill="#276dff"/>
    <circle id="Ellipse_102-118" data-name="Ellipse 102" cx="3" cy="3" r="3" transform="translate(805 1975)" fill="#276dff"/>
    <circle id="Ellipse_102-119" data-name="Ellipse 102" cx="3" cy="3" r="3" transform="translate(816 1975)" fill="#276dff"/>
    <circle id="Ellipse_102-120" data-name="Ellipse 102" cx="3" cy="3" r="3" transform="translate(827 1975)" fill="#276dff"/>
    <circle id="Ellipse_102-121" data-name="Ellipse 102" cx="3" cy="3" r="3" transform="translate(838 1975)" fill="#276dff"/>
    <circle id="Ellipse_102-122" data-name="Ellipse 102" cx="3" cy="3" r="3" transform="translate(849 1975)" fill="#276dff"/>
    <circle id="Ellipse_102-123" data-name="Ellipse 102" cx="3" cy="3" r="3" transform="translate(860 1975)" fill="#276dff"/>
    <circle id="Ellipse_102-124" data-name="Ellipse 102" cx="3" cy="3" r="3" transform="translate(871 1975)" fill="#276dff"/>
    <circle id="Ellipse_102-125" data-name="Ellipse 102" cx="3" cy="3" r="3" transform="translate(882 1975)" fill="#276dff"/>
    <circle id="Ellipse_102-126" data-name="Ellipse 102" cx="3" cy="3" r="3" transform="translate(893 1975)" fill="#276dff"/>
    <circle id="Ellipse_102-127" data-name="Ellipse 102" cx="3" cy="3" r="3" transform="translate(904 1975)" fill="#276dff"/>
    <circle id="Ellipse_102-128" data-name="Ellipse 102" cx="3" cy="3" r="3" transform="translate(915 1975)" fill="#276dff"/>
    <circle id="Ellipse_102-129" data-name="Ellipse 102" cx="3" cy="3" r="3" transform="translate(750 1985)" fill="#276dff"/>
    <circle id="Ellipse_102-130" data-name="Ellipse 102" cx="3" cy="3" r="3" transform="translate(761 1985)" fill="#276dff"/>
    <circle id="Ellipse_102-131" data-name="Ellipse 102" cx="3" cy="3" r="3" transform="translate(772 1985)" fill="#276dff"/>
    <circle id="Ellipse_102-132" data-name="Ellipse 102" cx="3" cy="3" r="3" transform="translate(783 1985)" fill="#276dff"/>
    <circle id="Ellipse_102-133" data-name="Ellipse 102" cx="3" cy="3" r="3" transform="translate(794 1985)" fill="#276dff"/>
    <circle id="Ellipse_102-134" data-name="Ellipse 102" cx="3" cy="3" r="3" transform="translate(805 1985)" fill="#276dff"/>
    <circle id="Ellipse_102-135" data-name="Ellipse 102" cx="3" cy="3" r="3" transform="translate(816 1985)" fill="#276dff"/>
    <circle id="Ellipse_102-136" data-name="Ellipse 102" cx="3" cy="3" r="3" transform="translate(827 1985)" fill="#276dff"/>
    <circle id="Ellipse_102-137" data-name="Ellipse 102" cx="3" cy="3" r="3" transform="translate(838 1985)" fill="#276dff"/>
    <circle id="Ellipse_102-138" data-name="Ellipse 102" cx="3" cy="3" r="3" transform="translate(849 1985)" fill="#276dff"/>
    <circle id="Ellipse_102-139" data-name="Ellipse 102" cx="3" cy="3" r="3" transform="translate(860 1985)" fill="#276dff"/>
    <circle id="Ellipse_102-140" data-name="Ellipse 102" cx="3" cy="3" r="3" transform="translate(871 1985)" fill="#276dff"/>
    <circle id="Ellipse_102-141" data-name="Ellipse 102" cx="3" cy="3" r="3" transform="translate(882 1985)" fill="#276dff"/>
    <circle id="Ellipse_102-142" data-name="Ellipse 102" cx="3" cy="3" r="3" transform="translate(893 1985)" fill="#276dff"/>
    <circle id="Ellipse_102-143" data-name="Ellipse 102" cx="3" cy="3" r="3" transform="translate(904 1985)" fill="#276dff"/>
    <circle id="Ellipse_102-144" data-name="Ellipse 102" cx="3" cy="3" r="3" transform="translate(915 1985)" fill="#276dff"/>
    <circle id="Ellipse_102-145" data-name="Ellipse 102" cx="3" cy="3" r="3" transform="translate(750 1995)" fill="#276dff"/>
    <circle id="Ellipse_102-146" data-name="Ellipse 102" cx="3" cy="3" r="3" transform="translate(761 1995)" fill="#276dff"/>
    <circle id="Ellipse_102-147" data-name="Ellipse 102" cx="3" cy="3" r="3" transform="translate(772 1995)" fill="#276dff"/>
    <circle id="Ellipse_102-148" data-name="Ellipse 102" cx="3" cy="3" r="3" transform="translate(783 1995)" fill="#276dff"/>
    <circle id="Ellipse_102-149" data-name="Ellipse 102" cx="3" cy="3" r="3" transform="translate(794 1995)" fill="#276dff"/>
    <circle id="Ellipse_102-150" data-name="Ellipse 102" cx="3" cy="3" r="3" transform="translate(805 1995)" fill="#276dff"/>
    <circle id="Ellipse_102-151" data-name="Ellipse 102" cx="3" cy="3" r="3" transform="translate(816 1995)" fill="#276dff"/>
    <circle id="Ellipse_102-152" data-name="Ellipse 102" cx="3" cy="3" r="3" transform="translate(827 1995)" fill="#276dff"/>
    <circle id="Ellipse_102-153" data-name="Ellipse 102" cx="3" cy="3" r="3" transform="translate(838 1995)" fill="#276dff"/>
    <circle id="Ellipse_102-154" data-name="Ellipse 102" cx="3" cy="3" r="3" transform="translate(849 1995)" fill="#276dff"/>
    <circle id="Ellipse_102-155" data-name="Ellipse 102" cx="3" cy="3" r="3" transform="translate(860 1995)" fill="#276dff"/>
    <circle id="Ellipse_102-156" data-name="Ellipse 102" cx="3" cy="3" r="3" transform="translate(871 1995)" fill="#276dff"/>
    <circle id="Ellipse_102-157" data-name="Ellipse 102" cx="3" cy="3" r="3" transform="translate(882 1995)" fill="#276dff"/>
    <circle id="Ellipse_102-158" data-name="Ellipse 102" cx="3" cy="3" r="3" transform="translate(893 1995)" fill="#276dff"/>
    <circle id="Ellipse_102-159" data-name="Ellipse 102" cx="3" cy="3" r="3" transform="translate(904 1995)" fill="#276dff"/>
    <circle id="Ellipse_102-160" data-name="Ellipse 102" cx="3" cy="3" r="3" transform="translate(915 1995)" fill="#276dff"/>
    <circle id="Ellipse_102-161" data-name="Ellipse 102" cx="3" cy="3" r="3" transform="translate(750 2005)" fill="#276dff"/>
    <circle id="Ellipse_102-162" data-name="Ellipse 102" cx="3" cy="3" r="3" transform="translate(761 2005)" fill="#276dff"/>
    <circle id="Ellipse_102-163" data-name="Ellipse 102" cx="3" cy="3" r="3" transform="translate(772 2005)" fill="#276dff"/>
    <circle id="Ellipse_102-164" data-name="Ellipse 102" cx="3" cy="3" r="3" transform="translate(783 2005)" fill="#276dff"/>
    <circle id="Ellipse_102-165" data-name="Ellipse 102" cx="3" cy="3" r="3" transform="translate(794 2005)" fill="#276dff"/>
    <circle id="Ellipse_102-166" data-name="Ellipse 102" cx="3" cy="3" r="3" transform="translate(805 2005)" fill="#276dff"/>
    <circle id="Ellipse_102-167" data-name="Ellipse 102" cx="3" cy="3" r="3" transform="translate(816 2005)" fill="#276dff"/>
    <circle id="Ellipse_102-168" data-name="Ellipse 102" cx="3" cy="3" r="3" transform="translate(827 2005)" fill="#276dff"/>
    <circle id="Ellipse_102-169" data-name="Ellipse 102" cx="3" cy="3" r="3" transform="translate(838 2005)" fill="#276dff"/>
    <circle id="Ellipse_102-170" data-name="Ellipse 102" cx="3" cy="3" r="3" transform="translate(849 2005)" fill="#276dff"/>
    <circle id="Ellipse_102-171" data-name="Ellipse 102" cx="3" cy="3" r="3" transform="translate(860 2005)" fill="#276dff"/>
    <circle id="Ellipse_102-172" data-name="Ellipse 102" cx="3" cy="3" r="3" transform="translate(871 2005)" fill="#276dff"/>
    <circle id="Ellipse_102-173" data-name="Ellipse 102" cx="3" cy="3" r="3" transform="translate(882 2005)" fill="#276dff"/>
    <circle id="Ellipse_102-174" data-name="Ellipse 102" cx="3" cy="3" r="3" transform="translate(893 2005)" fill="#276dff"/>
    <circle id="Ellipse_102-175" data-name="Ellipse 102" cx="3" cy="3" r="3" transform="translate(904 2005)" fill="#276dff"/>
    <circle id="Ellipse_102-176" data-name="Ellipse 102" cx="3" cy="3" r="3" transform="translate(915 2005)" fill="#276dff"/>
    <circle id="Ellipse_102-177" data-name="Ellipse 102" cx="3" cy="3" r="3" transform="translate(750 2015)" fill="#276dff"/>
    <circle id="Ellipse_102-178" data-name="Ellipse 102" cx="3" cy="3" r="3" transform="translate(761 2015)" fill="#276dff"/>
    <circle id="Ellipse_102-179" data-name="Ellipse 102" cx="3" cy="3" r="3" transform="translate(772 2015)" fill="#276dff"/>
    <circle id="Ellipse_102-180" data-name="Ellipse 102" cx="3" cy="3" r="3" transform="translate(783 2015)" fill="#276dff"/>
    <circle id="Ellipse_102-181" data-name="Ellipse 102" cx="3" cy="3" r="3" transform="translate(794 2015)" fill="#276dff"/>
    <circle id="Ellipse_102-182" data-name="Ellipse 102" cx="3" cy="3" r="3" transform="translate(805 2015)" fill="#276dff"/>
    <circle id="Ellipse_102-183" data-name="Ellipse 102" cx="3" cy="3" r="3" transform="translate(816 2015)" fill="#276dff"/>
    <circle id="Ellipse_102-184" data-name="Ellipse 102" cx="3" cy="3" r="3" transform="translate(827 2015)" fill="#276dff"/>
    <circle id="Ellipse_102-185" data-name="Ellipse 102" cx="3" cy="3" r="3" transform="translate(838 2015)" fill="#276dff"/>
    <circle id="Ellipse_102-186" data-name="Ellipse 102" cx="3" cy="3" r="3" transform="translate(849 2015)" fill="#276dff"/>
    <circle id="Ellipse_102-187" data-name="Ellipse 102" cx="3" cy="3" r="3" transform="translate(860 2015)" fill="#276dff"/>
    <circle id="Ellipse_102-188" data-name="Ellipse 102" cx="3" cy="3" r="3" transform="translate(871 2015)" fill="#276dff"/>
    <circle id="Ellipse_102-189" data-name="Ellipse 102" cx="3" cy="3" r="3" transform="translate(882 2015)" fill="#276dff"/>
    <circle id="Ellipse_102-190" data-name="Ellipse 102" cx="3" cy="3" r="3" transform="translate(893 2015)" fill="#276dff"/>
    <circle id="Ellipse_102-191" data-name="Ellipse 102" cx="3" cy="3" r="3" transform="translate(904 2015)" fill="#276dff"/>
    <circle id="Ellipse_102-192" data-name="Ellipse 102" cx="3" cy="3" r="3" transform="translate(915 2015)" fill="#276dff"/>
    <circle id="Ellipse_102-193" data-name="Ellipse 102" cx="3" cy="3" r="3" transform="translate(750 2025)" fill="#276dff"/>
    <circle id="Ellipse_102-194" data-name="Ellipse 102" cx="3" cy="3" r="3" transform="translate(761 2025)" fill="#276dff"/>
    <circle id="Ellipse_102-195" data-name="Ellipse 102" cx="3" cy="3" r="3" transform="translate(772 2025)" fill="#276dff"/>
    <circle id="Ellipse_102-196" data-name="Ellipse 102" cx="3" cy="3" r="3" transform="translate(783 2025)" fill="#276dff"/>
    <circle id="Ellipse_102-197" data-name="Ellipse 102" cx="3" cy="3" r="3" transform="translate(794 2025)" fill="#276dff"/>
    <circle id="Ellipse_102-198" data-name="Ellipse 102" cx="3" cy="3" r="3" transform="translate(805 2025)" fill="#276dff"/>
    <circle id="Ellipse_102-199" data-name="Ellipse 102" cx="3" cy="3" r="3" transform="translate(816 2025)" fill="#276dff"/>
    <circle id="Ellipse_102-200" data-name="Ellipse 102" cx="3" cy="3" r="3" transform="translate(827 2025)" fill="#276dff"/>
    <circle id="Ellipse_102-201" data-name="Ellipse 102" cx="3" cy="3" r="3" transform="translate(838 2025)" fill="#276dff"/>
    <circle id="Ellipse_102-202" data-name="Ellipse 102" cx="3" cy="3" r="3" transform="translate(849 2025)" fill="#276dff"/>
    <circle id="Ellipse_102-203" data-name="Ellipse 102" cx="3" cy="3" r="3" transform="translate(860 2025)" fill="#276dff"/>
    <circle id="Ellipse_102-204" data-name="Ellipse 102" cx="3" cy="3" r="3" transform="translate(871 2025)" fill="#276dff"/>
    <circle id="Ellipse_102-205" data-name="Ellipse 102" cx="3" cy="3" r="3" transform="translate(882 2025)" fill="#276dff"/>
    <circle id="Ellipse_102-206" data-name="Ellipse 102" cx="3" cy="3" r="3" transform="translate(893 2025)" fill="#276dff"/>
    <circle id="Ellipse_102-207" data-name="Ellipse 102" cx="3" cy="3" r="3" transform="translate(904 2025)" fill="#276dff"/>
    <circle id="Ellipse_102-208" data-name="Ellipse 102" cx="3" cy="3" r="3" transform="translate(915 2025)" fill="#276dff"/>
    <circle id="Ellipse_102-209" data-name="Ellipse 102" cx="3" cy="3" r="3" transform="translate(750 2035)" fill="#276dff"/>
    <circle id="Ellipse_102-210" data-name="Ellipse 102" cx="3" cy="3" r="3" transform="translate(761 2035)" fill="#276dff"/>
    <circle id="Ellipse_102-211" data-name="Ellipse 102" cx="3" cy="3" r="3" transform="translate(772 2035)" fill="#276dff"/>
    <circle id="Ellipse_102-212" data-name="Ellipse 102" cx="3" cy="3" r="3" transform="translate(783 2035)" fill="#276dff"/>
    <circle id="Ellipse_102-213" data-name="Ellipse 102" cx="3" cy="3" r="3" transform="translate(794 2035)" fill="#276dff"/>
    <circle id="Ellipse_102-214" data-name="Ellipse 102" cx="3" cy="3" r="3" transform="translate(805 2035)" fill="#276dff"/>
    <circle id="Ellipse_102-215" data-name="Ellipse 102" cx="3" cy="3" r="3" transform="translate(816 2035)" fill="#276dff"/>
    <circle id="Ellipse_102-216" data-name="Ellipse 102" cx="3" cy="3" r="3" transform="translate(827 2035)" fill="#276dff"/>
    <circle id="Ellipse_102-217" data-name="Ellipse 102" cx="3" cy="3" r="3" transform="translate(838 2035)" fill="#276dff"/>
    <circle id="Ellipse_102-218" data-name="Ellipse 102" cx="3" cy="3" r="3" transform="translate(849 2035)" fill="#276dff"/>
    <circle id="Ellipse_102-219" data-name="Ellipse 102" cx="3" cy="3" r="3" transform="translate(860 2035)" fill="#276dff"/>
    <circle id="Ellipse_102-220" data-name="Ellipse 102" cx="3" cy="3" r="3" transform="translate(871 2035)" fill="#276dff"/>
    <circle id="Ellipse_102-221" data-name="Ellipse 102" cx="3" cy="3" r="3" transform="translate(882 2035)" fill="#276dff"/>
    <circle id="Ellipse_102-222" data-name="Ellipse 102" cx="3" cy="3" r="3" transform="translate(893 2035)" fill="#276dff"/>
    <circle id="Ellipse_102-223" data-name="Ellipse 102" cx="3" cy="3" r="3" transform="translate(904 2035)" fill="#276dff"/>
    <circle id="Ellipse_102-224" data-name="Ellipse 102" cx="3" cy="3" r="3" transform="translate(915 2035)" fill="#276dff"/>
    <circle id="Ellipse_102-225" data-name="Ellipse 102" cx="3" cy="3" r="3" transform="translate(750 2045)" fill="#276dff"/>
    <circle id="Ellipse_102-226" data-name="Ellipse 102" cx="3" cy="3" r="3" transform="translate(761 2045)" fill="#276dff"/>
    <circle id="Ellipse_102-227" data-name="Ellipse 102" cx="3" cy="3" r="3" transform="translate(772 2045)" fill="#276dff"/>
    <circle id="Ellipse_102-228" data-name="Ellipse 102" cx="3" cy="3" r="3" transform="translate(783 2045)" fill="#276dff"/>
    <circle id="Ellipse_102-229" data-name="Ellipse 102" cx="3" cy="3" r="3" transform="translate(794 2045)" fill="#276dff"/>
    <circle id="Ellipse_102-230" data-name="Ellipse 102" cx="3" cy="3" r="3" transform="translate(805 2045)" fill="#276dff"/>
    <circle id="Ellipse_102-231" data-name="Ellipse 102" cx="3" cy="3" r="3" transform="translate(816 2045)" fill="#276dff"/>
    <circle id="Ellipse_102-232" data-name="Ellipse 102" cx="3" cy="3" r="3" transform="translate(827 2045)" fill="#276dff"/>
    <circle id="Ellipse_102-233" data-name="Ellipse 102" cx="3" cy="3" r="3" transform="translate(838 2045)" fill="#276dff"/>
    <circle id="Ellipse_102-234" data-name="Ellipse 102" cx="3" cy="3" r="3" transform="translate(849 2045)" fill="#276dff"/>
    <circle id="Ellipse_102-235" data-name="Ellipse 102" cx="3" cy="3" r="3" transform="translate(860 2045)" fill="#276dff"/>
    <circle id="Ellipse_102-236" data-name="Ellipse 102" cx="3" cy="3" r="3" transform="translate(871 2045)" fill="#276dff"/>
    <circle id="Ellipse_102-237" data-name="Ellipse 102" cx="3" cy="3" r="3" transform="translate(882 2045)" fill="#276dff"/>
    <circle id="Ellipse_102-238" data-name="Ellipse 102" cx="3" cy="3" r="3" transform="translate(893 2045)" fill="#276dff"/>
    <circle id="Ellipse_102-239" data-name="Ellipse 102" cx="3" cy="3" r="3" transform="translate(904 2045)" fill="#276dff"/>
    <circle id="Ellipse_102-240" data-name="Ellipse 102" cx="3" cy="3" r="3" transform="translate(915 2045)" fill="#276dff"/>
  </g>
</svg>